<?xml version="1.0" encoding="utf-8"?>
<!-- Generator: Adobe Illustrator 16.0.4, SVG Export Plug-In . SVG Version: 6.00 Build 0)  -->
<!DOCTYPE svg PUBLIC "-//W3C//DTD SVG 1.1//EN" "http://www.w3.org/Graphics/SVG/1.1/DTD/svg11.dtd">
<svg version="1.1" id="Layer_1" xmlns="http://www.w3.org/2000/svg" xmlns:xlink="http://www.w3.org/1999/xlink" x="0px" y="0px"
	 width="54.168px" height="54px" viewBox="0 0 54.168 54" enable-background="new 0 0 54.168 54" xml:space="preserve">
<path fill="#842B2A" d="M25.704,36.294c-4.499-4.049-3.921-19.101,3.792-19.113c6.518-0.01,3.076,9.21,1.51,12.385
	c-1.896,3.842-5.438,8.528-9.82,9.617c-1.188,0.295,2.126,3.438,2.518,3.715c-0.18-0.127-1.031,2.178-1.599,2.819
	c-1.072,1.211-2.737,1.853-4.266,2.207C10.116,49.709,7.567,41.839,6.222,35.78C3.262,22.451,8.75,9.773,22.357,5.731
	c11.511-3.419,20.988,3.139,24.43,14.04c3.25,10.296,0.115,21.606-7.817,28.811c-0.762,0.691,3.371,5.034,4.242,4.242
	c11.061-10.045,11.757-26.869,3.467-38.916C37.809,1.019,22.167-3.95,8.977,6.172C-4.344,16.394,0.022,40.465,12.072,49.78
	c3.975,3.073,9.769,3.792,13.858,0.571c4.328-3.408-0.391-8.341-3.453-10.51c0.839,1.239,1.678,2.477,2.518,3.715
	c6.444-1.601,10.64-9.036,12.234-14.979c1.797-6.7-2.79-12.425-8.651-15.067c-6.125-2.761-9.254,2.836-9.727,8.113
	c-0.576,6.44,2.243,12.58,6.958,16.822C28.903,41.229,27.332,37.759,25.704,36.294L25.704,36.294z"/>
</svg>
